<svg width="57" height="57" viewBox="0 0 57 57" fill="none" xmlns="http://www.w3.org/2000/svg">
<ellipse cx="28.4995" cy="29.5272" rx="25.6965" ry="27.472" fill="white"/>
<path d="M28.5002 0C12.7851 0 0 12.785 0 28.5C0 44.215 12.7851 57 28.5002 57C44.2151 57 57 44.215 57 28.5C57 12.785 44.2151 0 28.5002 0ZM28.5002 52.3279C15.3613 52.3279 4.6721 41.639 4.6721 28.5C4.6721 15.3612 15.3613 4.67213 28.5002 4.67213C41.6389 4.67213 52.3279 15.3612 52.3279 28.5C52.3279 41.639 41.6389 52.3279 28.5002 52.3279Z" fill="#E88F6D"/>
<path d="M40.8291 17.5616L23.9075 34.4834L16.1709 26.7467C15.2585 25.8346 13.7795 25.8346 12.8671 26.7467C11.9549 27.6591 11.9549 29.1381 12.8671 30.0505L22.2556 39.439C22.7118 39.895 23.3096 40.1232 23.9075 40.1232C24.5053 40.1232 25.1032 39.895 25.5594 39.439L44.1328 20.8655C45.045 19.9531 45.045 18.4741 44.1328 17.5617C43.2205 16.6494 41.7413 16.6494 40.8291 17.5616Z" fill="#E88F6D"/>
</svg>
