<svg width="24" height="15" viewBox="0 0 24 15" fill="none" xmlns="http://www.w3.org/2000/svg">
<path d="M21.5401 0H2.67653C1.45087 0 0.457275 0.895426 0.457275 1.99999V12.9999C0.457275 14.1045 1.45087 14.9999 2.67653 14.9999H21.5401C22.7658 14.9999 23.7594 14.1045 23.7594 12.9999V1.99999C23.7594 0.895426 22.7658 0 21.5401 0Z" fill="#E00000"/>
<path fill-rule="evenodd" clip-rule="evenodd" d="M0.457275 10H23.7594V15H0.457275V10Z" fill="#FFCF00"/>
<path fill-rule="evenodd" clip-rule="evenodd" d="M0.457275 0H23.7594V4.99994H0.457275V0Z" fill="black"/>
<path d="M21.54 0.5H2.6764C1.75715 0.5 1.01196 1.17157 1.01196 1.99999V12.9999C1.01196 13.8283 1.75715 14.4999 2.6764 14.4999H21.54C22.4592 14.4999 23.2045 13.8283 23.2045 12.9999V1.99999C23.2045 1.17157 22.4592 0.5 21.54 0.5Z" stroke="black" stroke-opacity="0.1"/>
</svg>
