<svg width="46" height="46" viewBox="0 0 46 46" fill="none" xmlns="http://www.w3.org/2000/svg">
<path opacity="0.4" d="M22 0H10C4.47715 0 0 4.47715 0 10V22C0 27.5228 4.47715 32 10 32H22C27.5228 32 32 27.5228 32 22V10C32 4.47715 27.5228 0 22 0Z" fill="white"/>
<path d="M35 33H25" stroke="#4F4F4F" stroke-width="1.5" stroke-linecap="round" stroke-linejoin="round"/>
<path d="M18.501 15.1919C17.5909 16.325 16.6394 17.5461 15.8481 18.573C15.3323 19.2424 14.8884 19.8245 14.5736 20.2389C14.4074 20.4577 14.2416 20.677 14.0759 20.8966C14.0558 20.9233 14.0352 20.9497 14.0142 20.9757L14.0081 20.9832L18.501 15.1919ZM18.501 15.1919C19.4141 16.3277 20.3684 17.5513 21.1616 18.5801C21.9366 19.5853 22.5498 20.3939 22.8062 20.7331L22.8448 20.7842C22.8907 20.8522 22.9396 20.9185 22.9917 20.983C23.7806 21.9602 24.25 23.1945 24.25 24.5451C24.25 27.6909 21.6806 30.2499 18.5 30.2499C15.3194 30.2499 12.75 27.6909 12.75 24.5451C12.75 23.1948 13.2192 21.9608 14.0078 20.9836L18.501 15.1919Z" stroke="#4F4F4F" stroke-width="1.5" stroke-linejoin="round"/>
<path d="M25.022 18H38L34.7621 41H20.7004L19.5 34" stroke="#4F4F4F" stroke-width="1.5" stroke-linecap="round" stroke-linejoin="round"/>
</svg>
