<svg width="46" height="46" viewBox="0 0 46 46" fill="none" xmlns="http://www.w3.org/2000/svg">
<path opacity="0.4" d="M22 0H10C4.47715 0 0 4.47715 0 10V22C0 27.5228 4.47715 32 10 32H22C27.5228 32 32 27.5228 32 22V10C32 4.47715 27.5228 0 22 0Z" fill="white"/>
<path d="M34 13.75H21C16.9959 13.75 13.75 16.9959 13.75 21V34C13.75 38.0041 16.9959 41.25 21 41.25H34C38.0041 41.25 41.25 38.0041 41.25 34V21C41.25 16.9959 38.0041 13.75 34 13.75Z" stroke="#4F4F4F" stroke-width="1.5"/>
<path d="M34 18.75H21C19.2051 18.75 17.75 20.2051 17.75 22C17.75 23.7949 19.2051 25.25 21 25.25H34C35.7949 25.25 37.25 23.7949 37.25 22C37.25 20.2051 35.7949 18.75 34 18.75Z" stroke="#4F4F4F" stroke-width="1.5"/>
<path d="M28 19V25" stroke="#4F4F4F" stroke-width="1.5" stroke-linecap="square" stroke-linejoin="round"/>
<path d="M34 29.75H21C19.2051 29.75 17.75 31.2051 17.75 33C17.75 34.7949 19.2051 36.25 21 36.25H34C35.7949 36.25 37.25 34.7949 37.25 33C37.25 31.2051 35.7949 29.75 34 29.75Z" stroke="#4F4F4F" stroke-width="1.5"/>
<path d="M28 30V36" stroke="#4F4F4F" stroke-width="1.5" stroke-linecap="square" stroke-linejoin="round"/>
</svg>
