<svg width="19" height="14" viewBox="0 0 19 14" fill="none" xmlns="http://www.w3.org/2000/svg">
<path d="M5.44942 13.5249C3.5443 13.5249 1.68157 13.1714 0 12.496C1.97615 12.478 3.83942 11.9681 5.39435 11.0174L6.00333 10.6449L5.22917 10.6338C3.65992 10.611 2.26742 9.88113 1.63697 8.78396C1.76527 8.79255 1.89356 8.79642 2.0213 8.79642C2.43151 8.79642 2.83621 8.75432 3.22549 8.67141L4.34764 8.43213L3.20732 8.25342C1.47069 7.98149 0.177297 6.84437 0.00495555 5.48901C0.522532 5.65999 1.08195 5.75708 1.64523 5.77125L2.6077 5.79531L1.80711 5.37775C0.687716 4.79523 0.0198221 3.81963 0.0198221 2.76972C0.0198221 2.31951 0.14371 1.87574 0.379923 1.47021C2.6044 3.45921 5.78088 4.66764 9.15889 4.79952L9.52285 4.8137L9.44136 4.53662C9.37253 4.30378 9.33784 4.06321 9.33784 3.82178C9.33784 2.09354 11.14 0.6875 13.3551 0.6875C14.4624 0.6875 15.5311 1.04835 16.2877 1.67727L16.3917 1.76405L16.5415 1.74085C17.2777 1.62787 17.9885 1.44401 18.663 1.19141C18.3299 1.68329 17.8448 2.08452 17.2347 2.36934L17.0156 2.47158L17.2166 2.78518L17.417 2.77831C17.961 2.72633 18.4852 2.6374 19 2.50853C18.5562 2.92007 18.0502 3.28651 17.4891 3.60269L17.3691 3.67014L17.3751 3.78612C17.3829 3.9266 17.3867 4.06836 17.3867 4.21013C17.3873 8.78912 12.9218 13.5249 5.44942 13.5249Z" fill="white"/>
</svg>
