<svg width="46" height="46" viewBox="0 0 46 46" fill="none" xmlns="http://www.w3.org/2000/svg">
<path opacity="0.4" d="M22 0H10C4.47715 0 0 4.47715 0 10V22C0 27.5228 4.47715 32 10 32H22C27.5228 32 32 27.5228 32 22V10C32 4.47715 27.5228 0 22 0Z" fill="white"/>
<path d="M29.9167 32.3331C29.9167 34.4719 28.9863 36.4052 27.5 37.7223C26.2192 38.8823 24.5275 39.5831 22.6667 39.5831C18.6671 39.5831 15.4167 36.3327 15.4167 32.3331C15.4167 28.9981 17.6884 26.1706 20.7575 25.3369C21.5913 27.4394 23.3796 29.0586 25.5909 29.6627C26.195 29.8319 26.8354 29.9165 27.5 29.9165C28.1646 29.9165 28.805 29.8319 29.4093 29.6627C29.7355 30.4844 29.9167 31.3906 29.9167 32.3331Z" stroke="#4F4F4F" stroke-width="1.5" stroke-linecap="round" stroke-linejoin="round"/>
<path d="M34.75 22.6665C34.75 23.609 34.5688 24.5152 34.2425 25.3369C33.4088 27.4394 31.6204 29.0586 29.4092 29.6627C28.805 29.8319 28.1646 29.9165 27.5 29.9165C26.8354 29.9165 26.195 29.8319 25.5908 29.6627C23.3796 29.0586 21.5913 27.4394 20.7575 25.3369C20.4313 24.5152 20.25 23.609 20.25 22.6665C20.25 18.6669 23.5004 15.4165 27.5 15.4165C31.4996 15.4165 34.75 18.6669 34.75 22.6665Z" stroke="#4F4F4F" stroke-width="1.5" stroke-linecap="round" stroke-linejoin="round"/>
<path d="M39.5833 32.3331C39.5833 36.3327 36.3329 39.5831 32.3333 39.5831C30.4725 39.5831 28.7808 38.8823 27.5 37.7223C28.9863 36.4052 29.9167 34.4719 29.9167 32.3331C29.9167 31.3906 29.7354 30.4844 29.4092 29.6627C31.6204 29.0586 33.4088 27.4394 34.2425 25.3369C37.3117 26.1706 39.5833 28.9981 39.5833 32.3331Z" stroke="#4F4F4F" stroke-width="1.5" stroke-linecap="round" stroke-linejoin="round"/>
</svg>
